<svg width="124" height="32" viewBox="0 0 124 32" fill="none" xmlns="http://www.w3.org/2000/svg">
<path d="M19.9707 19.8574C19.9707 19.4004 19.8301 19.0957 19.5488 18.9434C19.2793 18.791 18.8809 18.7148 18.3535 18.7148H10.1973V17.4492H18.3535C20.2754 17.4492 21.2363 18.252 21.2363 19.8574C21.2363 20.7598 20.9727 21.4102 20.4453 21.8086C19.918 22.207 19.2207 22.4062 18.3535 22.4062H10.1973V21.1406H18.3535C19.4316 21.1406 19.9707 20.7129 19.9707 19.8574ZM9.49414 30H8.22852V8.48438H18.3535C19.1504 8.48438 19.8301 8.73047 20.3926 9.22266C20.9551 9.70312 21.2363 10.3066 21.2363 11.0332C21.2363 11.9941 20.9727 12.6914 20.4453 13.125C19.918 13.5469 19.2207 13.7578 18.3535 13.7578H10.1973V12.4922H18.3535C19.4316 12.4922 19.9707 12.0059 19.9707 11.0332C19.9707 10.6348 19.8184 10.3242 19.5137 10.1016C19.209 9.86719 18.8223 9.75 18.3535 9.75H9.49414V30ZM10.1973 15.0234H18.3535C19.5137 15.0234 20.4922 14.6777 21.2891 13.9863C22.0977 13.2832 22.502 12.2988 22.502 11.0332C22.502 10.0137 22.0801 9.12305 21.2363 8.36133C20.4043 7.59961 19.4434 7.21875 18.3535 7.21875H6.96289V30H5.69727V5.95312H18.3535C19.7949 5.95312 21.0547 6.46289 22.1328 7.48242C23.2227 8.49023 23.7676 9.67383 23.7676 11.0332C23.7676 12.0996 23.5156 13.0312 23.0117 13.8281C22.5195 14.625 21.8516 15.2402 21.0078 15.6738C22.8477 16.3301 23.7676 17.666 23.7676 19.6816C23.7676 21.2754 23.2402 22.5527 22.1855 23.5137C21.1309 24.4629 19.8535 24.9375 18.3535 24.9375H10.1973V23.6719H18.3535C19.5137 23.6719 20.4922 23.3262 21.2891 22.6348C22.0977 21.9316 22.502 20.9473 22.502 19.6816C22.502 18.8262 22.1973 18.0703 21.5879 17.4141C20.9785 16.7578 20.082 16.377 18.8984 16.2715C18.7812 16.2832 18.5996 16.2891 18.3535 16.2891H10.1973V15.0234ZM26.2988 11.0332C26.2988 12.6738 25.7188 14.1562 24.5586 15.4805C25.7188 16.7695 26.2988 18.1699 26.2988 19.6816C26.2988 21.1465 25.9297 22.4824 25.1914 23.6895C24.4648 24.8848 23.4922 25.8164 22.2734 26.4844C21.0664 27.1406 19.7598 27.4688 18.3535 27.4688H10.1973V26.2031H18.3535C20.1816 26.2031 21.752 25.5938 23.0645 24.375C24.377 23.1445 25.0332 21.5801 25.0332 19.6816C25.0332 19.002 24.8574 18.252 24.5059 17.4316C24.166 16.5996 23.6914 15.9668 23.082 15.5332C24.3828 14.3145 25.0332 12.8145 25.0332 11.0332C25.0332 9.32227 24.3652 7.83984 23.0293 6.58594C21.6934 5.32031 20.1348 4.6875 18.3535 4.6875H4.43164V30H3.16602V3.42188H18.3535C19.748 3.42188 21.0547 3.76758 22.2734 4.45898C23.5039 5.13867 24.4824 6.07031 25.209 7.25391C25.9355 8.42578 26.2988 9.68555 26.2988 11.0332ZM26 15.5508C27.043 14.1562 27.5645 12.6504 27.5645 11.0332C27.5645 9.45117 27.1426 7.98047 26.2988 6.62109C25.4668 5.25 24.3418 4.16602 22.9238 3.36914C21.5059 2.56055 19.9824 2.15625 18.3535 2.15625H1.90039V30H0.634766V0.890625H18.3535C20.2051 0.890625 21.9336 1.34766 23.5391 2.26172C25.1562 3.17578 26.4395 4.41797 27.3887 5.98828C28.3496 7.54688 28.8301 9.22852 28.8301 11.0332C28.8301 12.7559 28.3438 14.2676 27.3711 15.5684C28.3438 16.916 28.8301 18.2871 28.8301 19.6816C28.8301 21.252 28.5488 22.6934 27.9863 24.0059C27.4238 25.3066 26.6621 26.3906 25.7012 27.2578C24.752 28.125 23.6445 28.7988 22.3789 29.2793C21.1133 29.7598 19.7715 30 18.3535 30H10.1973V28.7344H18.3535C19.584 28.7344 20.7617 28.5059 21.8867 28.0488C23.0117 27.5801 23.9902 26.9473 24.8223 26.1504C25.6543 25.3535 26.3164 24.3926 26.8086 23.2676C27.3125 22.1426 27.5645 20.9473 27.5645 19.6816C27.5645 19.1191 27.4297 18.4453 27.1602 17.6602C26.9023 16.8633 26.5156 16.1602 26 15.5508ZM41.3457 13.7754C40.3613 14.7598 39.8691 15.9492 39.8691 17.3438C39.8691 18.7383 40.3613 19.9336 41.3457 20.9297C42.3418 21.9141 43.5371 22.4062 44.9316 22.4062C46.3262 22.4062 47.5156 21.9141 48.5 20.9297C49.4961 19.9336 49.9941 18.7383 49.9941 17.3438C49.9941 15.9492 49.4961 14.7598 48.5 13.7754C47.5156 12.7793 46.3262 12.2812 44.9316 12.2812C43.5371 12.2812 42.3418 12.7793 41.3457 13.7754ZM40.4492 21.8262C39.2188 20.584 38.6035 19.0898 38.6035 17.3438C38.6035 15.5977 39.2188 14.1094 40.4492 12.8789C41.6914 11.6367 43.1855 11.0156 44.9316 11.0156C46.6777 11.0156 48.166 11.6367 49.3965 12.8789C50.6387 14.1094 51.2598 15.5977 51.2598 17.3438C51.2598 19.0898 50.6387 20.584 49.3965 21.8262C48.166 23.0566 46.6777 23.6719 44.9316 23.6719C43.1855 23.6719 41.6914 23.0566 40.4492 21.8262ZM39.5527 11.9824C38.0762 13.4707 37.3379 15.2578 37.3379 17.3438C37.3379 19.4297 38.0762 21.2168 39.5527 22.7051C41.041 24.1934 42.834 24.9375 44.9316 24.9375C47.0293 24.9375 48.8164 24.1934 50.293 22.7051C51.7812 21.2168 52.5254 19.4297 52.5254 17.3438C52.5254 15.2578 51.7812 13.4707 50.293 11.9824C48.8164 10.4941 47.0293 9.75 44.9316 9.75C42.834 9.75 41.041 10.4941 39.5527 11.9824ZM37.25 21.791C36.4648 20.4316 36.0723 18.9492 36.0723 17.3438C36.0723 15.7383 36.4648 14.2559 37.25 12.8965C38.0469 11.5371 39.125 10.4648 40.4844 9.67969C41.8438 8.88281 43.3262 8.48438 44.9316 8.48438C46.5371 8.48438 48.0195 8.88281 49.3789 9.67969C50.7383 10.4648 51.8105 11.5371 52.5957 12.8965C53.3926 14.2559 53.791 15.7383 53.791 17.3438C53.791 18.9492 53.3926 20.4316 52.5957 21.791C51.8105 23.1504 50.7383 24.2285 49.3789 25.0254C48.0195 25.8105 46.5371 26.2031 44.9316 26.2031C43.3262 26.2031 41.8438 25.8105 40.4844 25.0254C39.125 24.2285 38.0469 23.1504 37.25 21.791ZM35.5977 13.4238C35.0703 14.666 34.8066 15.9727 34.8066 17.3438C34.8066 18.7148 35.0703 20.0273 35.5977 21.2812C36.1367 22.5234 36.8574 23.6016 37.7598 24.5156C38.6738 25.418 39.752 26.1387 40.9941 26.6777C42.248 27.2051 43.5605 27.4688 44.9316 27.4688C46.3027 27.4688 47.6094 27.2051 48.8516 26.6777C50.1055 26.1387 51.1836 25.418 52.0859 24.5156C53 23.6016 53.7207 22.5234 54.248 21.2812C54.7871 20.0273 55.0566 18.7148 55.0566 17.3438C55.0566 15.9727 54.7871 14.666 54.248 13.4238C53.7207 12.1699 53 11.0918 52.0859 10.1895C51.1836 9.27539 50.1055 8.55469 48.8516 8.02734C47.6094 7.48828 46.3027 7.21875 44.9316 7.21875C43.5605 7.21875 42.248 7.48828 40.9941 8.02734C39.752 8.55469 38.6738 9.27539 37.7598 10.1895C36.8574 11.0918 36.1367 12.1699 35.5977 13.4238ZM34.4375 21.7734C33.8398 20.3672 33.541 18.8906 33.541 17.3438C33.541 15.7969 33.8398 14.3203 34.4375 12.9141C35.0469 11.5078 35.8555 10.3008 36.8633 9.29297C37.8828 8.27344 39.0957 7.46484 40.502 6.86719C41.9082 6.25781 43.3848 5.95312 44.9316 5.95312C46.4785 5.95312 47.9551 6.25781 49.3613 6.86719C50.7676 7.46484 51.9746 8.27344 52.9824 9.29297C54.002 10.3008 54.8105 11.5078 55.4082 12.9141C56.0176 14.3203 56.3223 15.7969 56.3223 17.3438C56.3223 18.8906 56.0176 20.3672 55.4082 21.7734C54.8105 23.1797 54.002 24.3926 52.9824 25.4121C51.9746 26.4199 50.7676 27.2285 49.3613 27.8379C47.9551 28.4355 46.4785 28.7344 44.9316 28.7344C43.3848 28.7344 41.9082 28.4355 40.502 27.8379C39.0957 27.2285 37.8828 26.4199 36.8633 25.4121C35.8555 24.3926 35.0469 23.1797 34.4375 21.7734ZM33.2773 12.4395C32.6094 13.998 32.2754 15.6328 32.2754 17.3438C32.2754 19.0547 32.6094 20.6953 33.2773 22.2656C33.9453 23.8242 34.8418 25.1719 35.9668 26.3086C37.1035 27.4336 38.4512 28.3301 40.0098 28.998C41.5801 29.666 43.2207 30 44.9316 30C46.6426 30 48.2773 29.666 49.8359 28.998C51.4062 28.3301 52.7539 27.4336 53.8789 26.3086C55.0156 25.1719 55.918 23.8242 56.5859 22.2656C57.2539 20.6953 57.5879 19.0547 57.5879 17.3438C57.5879 15.6328 57.2539 13.998 56.5859 12.4395C55.918 10.8691 55.0156 9.52148 53.8789 8.39648C52.7539 7.25977 51.4062 6.35742 49.8359 5.68945C48.2773 5.02148 46.6426 4.6875 44.9316 4.6875C43.2207 4.6875 41.5801 5.02148 40.0098 5.68945C38.4512 6.35742 37.1035 7.25977 35.9668 8.39648C34.8418 9.52148 33.9453 10.8691 33.2773 12.4395ZM32.1172 22.7578C31.3789 21.0352 31.0098 19.2305 31.0098 17.3438C31.0098 15.457 31.3789 13.6582 32.1172 11.9473C32.8555 10.2246 33.8457 8.74219 35.0879 7.5C36.3301 6.25781 37.8066 5.26758 39.5176 4.5293C41.2402 3.79102 43.0449 3.42188 44.9316 3.42188C46.8184 3.42188 48.6172 3.79102 50.3281 4.5293C52.0508 5.26758 53.5332 6.25781 54.7754 7.5C56.0176 8.74219 57.0078 10.2246 57.7461 11.9473C58.4844 13.6582 58.8535 15.457 58.8535 17.3438C58.8535 19.2305 58.4844 21.0352 57.7461 22.7578C57.0078 24.4688 56.0176 25.9453 54.7754 27.1875C53.5332 28.4297 52.0508 29.4199 50.3281 30.1582C48.6172 30.8965 46.8184 31.2656 44.9316 31.2656C43.0449 31.2656 41.2402 30.8965 39.5176 30.1582C37.8066 29.4199 36.3301 28.4297 35.0879 27.1875C33.8457 25.9453 32.8555 24.4688 32.1172 22.7578ZM86.6621 21.8613C86.9082 21.873 87.207 21.8789 87.5586 21.8789C87.9102 21.8789 88.2031 21.873 88.4375 21.8613C88.6836 21.8379 88.9355 21.791 89.1934 21.7207C89.4512 21.6387 89.6562 21.5332 89.8086 21.4043C89.9609 21.2754 90.084 21.0938 90.1777 20.8594C90.2832 20.6133 90.3359 20.3203 90.3359 19.9805V4.6875H91.6016V19.9805C91.6016 22.0898 90.2539 23.1445 87.5586 23.1445C86.1992 23.1445 85.1914 22.8867 84.5352 22.3711C84.4414 22.8281 84.3301 23.2324 84.2012 23.584C85.0918 24.1348 86.2109 24.4102 87.5586 24.4102C89.1289 24.4102 90.4062 24.0469 91.3906 23.3203C92.375 22.582 92.8672 21.4688 92.8672 19.9805V4.6875H94.1328V19.9805C94.1328 21.8203 93.5117 23.2324 92.2695 24.2168C91.0391 25.1895 89.4688 25.6758 87.5586 25.6758C86.0703 25.6758 84.793 25.3711 83.7266 24.7617C83.5508 25.1367 83.3457 25.4941 83.1113 25.834C84.3887 26.5723 85.8711 26.9414 87.5586 26.9414C88.6484 26.9414 89.6621 26.7891 90.5996 26.4844C91.5488 26.1797 92.3809 25.7402 93.0957 25.166C93.8105 24.5918 94.373 23.8594 94.7832 22.9688C95.1934 22.0781 95.3984 21.082 95.3984 19.9805V4.6875H96.6641V19.9805C96.6641 21.668 96.248 23.1445 95.416 24.4102C94.5957 25.6758 93.5 26.625 92.1289 27.2578C90.7695 27.8906 89.2461 28.207 87.5586 28.207C85.5898 28.207 83.8555 27.7559 82.3555 26.8535C82.0273 27.2285 81.7285 27.5332 81.459 27.7676C83.2051 28.9043 85.2383 29.4727 87.5586 29.4727C89.4688 29.4727 91.2031 29.0977 92.7617 28.3477C94.3203 27.5977 95.5684 26.4961 96.5059 25.043C97.4551 23.5781 97.9297 21.8906 97.9297 19.9805V4.6875H99.1953V19.9805C99.1953 21.5977 98.8848 23.0859 98.2637 24.4453C97.6543 25.8047 96.8223 26.9414 95.7676 27.8555C94.7246 28.7695 93.4941 29.4785 92.0762 29.9824C90.6582 30.4863 89.1523 30.7383 87.5586 30.7383C84.7695 30.7383 82.3848 30.0234 80.4043 28.5938C78.3535 30.0234 75.9336 30.7383 73.1445 30.7383C71.5508 30.7383 70.0449 30.4863 68.627 29.9824C67.209 29.4785 65.9727 28.7695 64.918 27.8555C63.875 26.9414 63.043 25.8047 62.4219 24.4453C61.8125 23.0859 61.5078 21.5977 61.5078 19.9805V4.6875H62.7734V19.9805C62.7734 21.4219 63.043 22.7461 63.582 23.9531C64.1328 25.1602 64.877 26.1621 65.8145 26.959C66.752 27.7559 67.8477 28.377 69.1016 28.8223C70.3672 29.2559 71.7148 29.4727 73.1445 29.4727C75.0078 29.4727 76.7363 29.0508 78.3301 28.207C79.9238 27.3516 81.1836 26.1973 82.1094 24.7441C83.0469 23.2793 83.5156 21.6914 83.5156 19.9805V4.6875H84.7812V19.9805C84.7812 20.3203 84.8281 20.6133 84.9219 20.8594C85.0273 21.0938 85.1562 21.2754 85.3086 21.4043C85.4609 21.5332 85.666 21.6387 85.9238 21.7207C86.1816 21.791 86.4277 21.8379 86.6621 21.8613ZM77.1875 4.6875V19.9805C77.1875 22.0898 75.8398 23.1445 73.1445 23.1445C70.4492 23.1445 69.1016 22.0898 69.1016 19.9805V4.6875H70.3672V19.9805C70.3672 20.3203 70.4141 20.6133 70.5078 20.8594C70.6133 21.0938 70.7422 21.2754 70.8945 21.4043C71.0469 21.5332 71.252 21.6387 71.5098 21.7207C71.7676 21.791 72.0137 21.8379 72.248 21.8613C72.4941 21.873 72.793 21.8789 73.1445 21.8789C73.4961 21.8789 73.7891 21.873 74.0234 21.8613C74.2695 21.8379 74.5215 21.791 74.7793 21.7207C75.0371 21.6387 75.2422 21.5332 75.3945 21.4043C75.5469 21.2754 75.6699 21.0938 75.7637 20.8594C75.8691 20.6133 75.9219 20.3203 75.9219 19.9805V4.6875H77.1875ZM79.7188 4.6875V19.9805C79.7188 21.8203 79.0977 23.2324 77.8555 24.2168C76.625 25.1895 75.0547 25.6758 73.1445 25.6758C71.2344 25.6758 69.6582 25.1895 68.416 24.2168C67.1855 23.2324 66.5703 21.8203 66.5703 19.9805V4.6875H67.8359V19.9805C67.8359 21.4688 68.3281 22.582 69.3125 23.3203C70.2969 24.0469 71.5742 24.4102 73.1445 24.4102C74.7148 24.4102 75.9922 24.0469 76.9766 23.3203C77.9609 22.582 78.4531 21.4688 78.4531 19.9805V4.6875H79.7188ZM82.25 4.6875V19.9805C82.25 21.668 81.834 23.1445 81.002 24.4102C80.1816 25.6758 79.0859 26.625 77.7148 27.2578C76.3555 27.8906 74.832 28.207 73.1445 28.207C71.457 28.207 69.9277 27.8906 68.5566 27.2578C67.1973 26.625 66.1016 25.6758 65.2695 24.4102C64.4492 23.1445 64.0391 21.668 64.0391 19.9805V4.6875H65.3047V19.9805C65.3047 21.082 65.5098 22.0781 65.9199 22.9688C66.3301 23.8594 66.8926 24.5918 67.6074 25.166C68.3223 25.7402 69.1484 26.1797 70.0859 26.4844C71.0352 26.7891 72.0547 26.9414 73.1445 26.9414C74.2344 26.9414 75.248 26.7891 76.1855 26.4844C77.1348 26.1797 77.9668 25.7402 78.6816 25.166C79.3965 24.5918 79.959 23.8594 80.3691 22.9688C80.7793 22.0781 80.9844 21.082 80.9844 19.9805V4.6875H82.25ZM108.705 30H107.439V4.6875H108.705V30ZM106.174 30H104.908V4.6875H106.174V30ZM103.643 30H102.377V4.6875H103.643V30ZM111.236 23.6719H123.348V24.9375H111.236V26.2031H123.348V27.4688H111.236V28.7344H123.348V30H109.971V4.6875H123.348V5.95312H111.236V7.21875H123.348V8.48438H111.236V9.75H123.348V11.0156H111.236V14.1621H122.645V15.4277H111.236V16.6934H122.645V17.959H111.236V19.2246H122.645V20.4902H111.236V23.6719Z" fill="white"/>
</svg>
